# xmcd
#
# Track frame offsets:
#	150
#	20970
#	49182
#	70887
#	98454
#	123892
#	148360
#	171645
#	192392
#	209912
#
# Disc length: 3136
#
# Revision: 1
# Processed by: cddbd v1.5.1PL0 Copyright (c) Steve Scherf et al.
# Submitted via: dBpowerAMP V4.0
# Normalized: r0:TDELIM( - )
#
DISCID=a30c3e0a
DTITLE=Various Artist - Gospel Greatest Cd 2
DYEAR=1900
DGENRE=
TTITLE0=Donnie Haper and The New Jersey Mass Choir - Strong Hands
TTITLE1=Howard Hewett and Kim McFarland - It's In My Heart
TTITLE2=The Mighty Clouds Of Joy - Power Of The Holy Ghost
TTITLE3=The Canton Spirituals - Mississippi Poor Boy
TTITLE4=The Myra Walker Singers - I Am Redeemed
TTITLE5=Candi Staton - Somebody's Knocking
TTITLE6=Vickie Winans - Christ Is The Answer
TTITLE7=Witness - Mean What You Say
TTITLE8=Nu Colors - God Is Trying To Tell You Something
TTITLE9=The Mighty Clouds Of Joy - Meeting Tonight
EXTD=Gospel ,Flemming Trab
EXTT0=
EXTT1=
EXTT2=
EXTT3=
EXTT4=
EXTT5=
EXTT6=
EXTT7=
EXTT8=
EXTT9=
PLAYORDER=
